<?xml version="1.0" encoding="utf-8"?>
<!-- Generator: Adobe Illustrator 16.0.0, SVG Export Plug-In . SVG Version: 6.00 Build 0)  -->
<!DOCTYPE svg PUBLIC "-//W3C//DTD SVG 1.1//EN" "http://www.w3.org/Graphics/SVG/1.1/DTD/svg11.dtd">
<svg version="1.1" id="Layer_1" xmlns="http://www.w3.org/2000/svg" xmlns:xlink="http://www.w3.org/1999/xlink" x="0px" y="0px"
	 width="380.522px" height="119.125px" viewBox="0 0 380.522 119.125" enable-background="new 0 0 380.522 119.125"
	 xml:space="preserve">
<g>
	<path fill="#231F20" d="M153.858,52.058c0,6.738,0,9.318-1.247,12.272c-0.874,2.078-2.705,4.033-6.074,6.362
		c-0.539,0.376-1.205,0.833-1.622,1.039c-0.082,0.044-0.165,0.085-0.29,0.085c-0.126,0-0.292-0.085-0.292-0.251
		c0-0.25,0.209-0.371,0.582-0.622c0.5-0.294,1.083-0.794,1.457-1.163c2.703-2.75,3.993-4.953,3.993-15.686V42.075
		c0-6.489,0-7.653-0.084-8.985c-0.082-1.414-0.416-2.081-1.789-2.37c-0.333-0.083-1.039-0.126-1.414-0.126
		c-0.167,0-0.332-0.082-0.332-0.25c0-0.247,0.208-0.331,0.666-0.331c1.871,0,4.491,0.124,4.7,0.124c0.207,0,2.827-0.124,4.076-0.124
		c0.457,0,0.665,0.084,0.665,0.331c0,0.168-0.167,0.25-0.333,0.25c-0.291,0-0.54,0.043-1.04,0.126
		c-1.124,0.207-1.455,0.914-1.538,2.37c-0.084,1.332-0.084,2.496-0.084,8.985V52.058L153.858,52.058z"/>
	<path fill="#231F20" d="M179.644,29.431c9.36,0,16.347,5.906,16.347,15.599c0,9.317-6.57,17.011-16.598,17.011
		c-11.396,0-16.136-8.859-16.136-16.346C163.257,38.957,168.165,29.431,179.644,29.431z M180.518,60.461
		c3.743,0,11.48-2.162,11.48-14.267c0-9.982-6.072-15.35-12.646-15.35c-6.947,0-12.146,4.577-12.146,13.686
		C167.208,54.221,173.031,60.461,180.518,60.461z"/>
	<path fill="#231F20" d="M231.593,49.395c0,3.994,0,7.28,0.207,9.029c0.123,1.204,0.374,2.12,1.624,2.286
		c0.58,0.082,1.495,0.168,1.87,0.168c0.25,0,0.333,0.125,0.333,0.249c0,0.207-0.208,0.331-0.662,0.331
		c-2.292,0-4.91-0.124-5.121-0.124c-0.205,0-2.827,0.124-4.075,0.124c-0.459,0-0.664-0.082-0.664-0.331
		c0-0.124,0.08-0.249,0.332-0.249c0.373,0,0.873-0.086,1.249-0.168c0.83-0.166,1.038-1.082,1.204-2.286
		c0.21-1.749,0.21-5.035,0.21-9.029V45.03c0-0.168-0.127-0.251-0.252-0.251h-17.633c-0.127,0-0.252,0.043-0.252,0.251v4.365
		c0,3.994,0,7.28,0.207,9.029c0.124,1.204,0.375,2.12,1.624,2.286c0.581,0.082,1.492,0.168,1.87,0.168
		c0.248,0,0.332,0.125,0.332,0.249c0,0.207-0.207,0.331-0.666,0.331c-2.287,0-4.907-0.124-5.115-0.124s-2.828,0.124-4.075,0.124
		c-0.458,0-0.664-0.082-0.664-0.331c0-0.124,0.079-0.249,0.332-0.249c0.37,0,0.871-0.086,1.247-0.168
		c0.832-0.166,1.04-1.082,1.207-2.286c0.208-1.749,0.208-5.035,0.208-9.029v-7.318c0-6.489,0-7.653-0.085-8.985
		c-0.082-1.414-0.416-2.081-1.788-2.37c-0.332-0.083-1.042-0.126-1.415-0.126c-0.165,0-0.331-0.082-0.331-0.25
		c0-0.247,0.206-0.331,0.663-0.331c1.873,0,4.493,0.124,4.701,0.124s2.828-0.124,4.077-0.124c0.456,0,0.665,0.084,0.665,0.331
		c0,0.168-0.168,0.25-0.334,0.25c-0.291,0-0.539,0.043-1.038,0.126c-1.125,0.207-1.457,0.914-1.54,2.37
		c-0.082,1.332-0.082,2.496-0.082,8.985v0.873c0,0.209,0.125,0.248,0.252,0.248h17.633c0.125,0,0.252-0.039,0.252-0.248v-0.873
		c0-6.489,0-7.653-0.085-8.985c-0.082-1.414-0.415-2.081-1.788-2.37c-0.333-0.083-1.042-0.126-1.414-0.126
		c-0.167,0-0.334-0.082-0.334-0.25c0-0.247,0.209-0.331,0.665-0.331c1.873,0,4.495,0.124,4.7,0.124c0.211,0,2.829-0.124,4.077-0.124
		c0.459,0,0.666,0.084,0.666,0.331c0,0.168-0.168,0.25-0.334,0.25c-0.29,0-0.54,0.043-1.039,0.126
		c-1.122,0.207-1.458,0.914-1.538,2.37c-0.083,1.332-0.083,2.496-0.083,8.985V49.395L231.593,49.395z"/>
	<path fill="#231F20" d="M247.934,55.803c0.082,3.412,0.499,4.493,1.621,4.825c0.79,0.207,1.703,0.251,2.08,0.251
		c0.208,0,0.333,0.08,0.333,0.249c0,0.249-0.251,0.331-0.749,0.331c-2.369,0-4.035-0.124-4.409-0.124
		c-0.375,0-2.122,0.124-3.994,0.124c-0.414,0-0.664-0.042-0.664-0.331c0-0.169,0.126-0.249,0.332-0.249
		c0.332,0,1.08-0.044,1.706-0.251c1.041-0.293,1.247-1.497,1.247-5.283l0.042-23.833c0-1.622,0.125-2.08,0.455-2.08
		c0.335,0,1.044,0.914,1.459,1.33c0.623,0.708,6.819,7.405,13.229,14.269c4.116,4.409,8.65,9.483,9.982,10.855l-0.459-21.131
		c-0.041-2.702-0.33-3.618-1.622-3.95c-0.748-0.166-1.705-0.209-2.038-0.209c-0.29,0-0.333-0.124-0.333-0.292
		c0-0.249,0.333-0.289,0.831-0.289c1.873,0,3.869,0.124,4.325,0.124c0.459,0,1.831-0.124,3.539-0.124
		c0.458,0,0.747,0.04,0.747,0.289c0,0.168-0.166,0.292-0.456,0.292c-0.211,0-0.5,0-1,0.126c-1.372,0.289-1.538,1.205-1.538,3.702
		l-0.082,24.373c0,2.744-0.085,2.953-0.376,2.953c-0.332,0-0.834-0.457-3.036-2.661c-0.459-0.415-6.448-6.529-10.854-11.272
		c-4.827-5.198-9.526-10.439-10.857-11.938L247.934,55.803z"/>
	<path fill="#231F20" d="M283.948,60.917c-0.581-0.289-0.624-0.456-0.624-1.579c0-2.078,0.165-3.743,0.208-4.409
		c0.042-0.457,0.125-0.666,0.335-0.666c0.247,0,0.29,0.126,0.29,0.458c0,0.375,0,0.959,0.125,1.54
		c0.623,3.077,3.368,4.243,6.157,4.243c3.99,0,5.947-2.872,5.947-5.533c0-2.87-1.206-4.533-4.784-7.486l-1.872-1.539
		c-4.407-3.619-5.405-6.198-5.405-9.026c0-4.451,3.325-7.487,8.608-7.487c1.622,0,2.832,0.166,3.868,0.416
		c0.791,0.167,1.123,0.207,1.458,0.207c0.331,0,0.413,0.084,0.413,0.291c0,0.209-0.165,1.581-0.165,4.409
		c0,0.667-0.081,0.958-0.29,0.958c-0.249,0-0.293-0.208-0.334-0.541c-0.042-0.501-0.291-1.622-0.539-2.08
		c-0.251-0.458-1.375-2.204-5.201-2.204c-2.871,0-5.117,1.789-5.117,4.825c0,2.371,1.084,3.868,5.075,6.988l1.167,0.913
		c4.906,3.87,6.07,6.449,6.07,9.775c0,1.706-0.666,4.866-3.536,6.906c-1.788,1.245-4.035,1.745-6.278,1.745
		C287.569,62.041,285.654,61.75,283.948,60.917z"/>
	<path fill="#231F20" d="M322.38,29.431c9.356,0,16.344,5.906,16.344,15.599c0,9.317-6.57,17.011-16.595,17.011
		c-11.399,0-16.142-8.859-16.142-16.346C305.989,38.957,310.899,29.431,322.38,29.431z M323.253,60.461
		c3.741,0,11.479-2.162,11.479-14.267c0-9.982-6.072-15.35-12.644-15.35c-6.948,0-12.147,4.577-12.147,13.686
		C309.942,54.221,315.764,60.461,323.253,60.461z"/>
	<path fill="#231F20" d="M350.325,55.803c0.084,3.412,0.5,4.493,1.623,4.825c0.791,0.207,1.707,0.251,2.079,0.251
		c0.209,0,0.332,0.08,0.332,0.249c0,0.249-0.249,0.331-0.749,0.331c-2.371,0-4.033-0.124-4.409-0.124
		c-0.372,0-2.121,0.124-3.989,0.124c-0.418,0-0.667-0.042-0.667-0.331c0-0.169,0.124-0.249,0.334-0.249
		c0.333,0,1.081-0.044,1.703-0.251c1.038-0.293,1.247-1.497,1.247-5.283l0.042-23.833c0-1.622,0.125-2.08,0.458-2.08
		c0.332,0,1.038,0.914,1.456,1.33c0.624,0.708,6.821,7.405,13.229,14.269c4.119,4.409,8.65,9.483,9.981,10.855l-0.457-21.131
		c-0.043-2.702-0.334-3.618-1.621-3.95c-0.752-0.166-1.706-0.209-2.038-0.209c-0.291,0-0.332-0.124-0.332-0.292
		c0-0.249,0.332-0.289,0.83-0.289c1.872,0,3.869,0.124,4.328,0.124c0.456,0,1.829-0.124,3.532-0.124c0.458,0,0.747,0.04,0.747,0.289
		c0,0.168-0.165,0.292-0.456,0.292c-0.207,0-0.498,0-0.997,0.126c-1.374,0.289-1.541,1.205-1.541,3.702l-0.081,24.373
		c0,2.744-0.083,2.953-0.375,2.953c-0.333,0-0.829-0.457-3.033-2.661c-0.459-0.415-6.449-6.529-10.859-11.272
		c-4.823-5.198-9.525-10.439-10.855-11.938L350.325,55.803z"/>
	<path fill="#B31B1B" d="M162.791,90.641l-0.556,1.32c-1.107,0.561-2.191,0.965-3.254,1.215c-1.062,0.252-2.219,0.377-3.471,0.377
		c-1.469,0-2.832-0.183-4.092-0.554c-1.262-0.368-2.364-0.899-3.306-1.587c-0.943-0.688-1.712-1.458-2.312-2.312
		c-0.595-0.853-1.051-1.778-1.363-2.778c-0.312-1.001-0.469-2.099-0.469-3.294c0-3.025,1.055-5.531,3.163-7.518
		c2.108-1.988,4.986-2.979,8.636-2.979c0.862,0,1.662,0.049,2.395,0.146c0.736,0.103,1.632,0.291,2.688,0.569
		c1.058,0.284,1.703,0.442,1.939,0.491c-0.208,0.521-0.363,1.033-0.467,1.537c-0.153,0.805-0.258,1.738-0.313,2.798h-0.896
		l-0.015-1.675c-0.094-0.93-0.608-1.623-1.543-2.076c-0.935-0.452-2.3-0.684-4.1-0.684c-1.346,0.02-2.489,0.191-3.427,0.52
		c-0.939,0.327-1.766,0.844-2.48,1.549c-0.717,0.708-1.301,1.602-1.756,2.688c-0.454,1.086-0.686,2.449-0.696,4.088
		c0,2.869,0.876,5.182,2.63,6.931c1.754,1.748,4.07,2.621,6.95,2.621c1.298,0,2.502-0.179,3.612-0.534
		c0.758-0.244,1.511-0.633,2.26-1.156L162.791,90.641z"/>
	<path fill="#B31B1B" d="M164.233,86.596c0-2.123,0.676-3.86,2.026-5.201c1.351-1.346,3.081-2.014,5.194-2.014
		c1.988,0,3.61,0.625,4.861,1.879c1.25,1.25,1.876,2.866,1.876,4.85c0,1.388-0.323,2.652-0.966,3.8
		c-0.645,1.147-1.556,2.048-2.729,2.7c-1.175,0.646-2.469,0.975-3.882,0.975c-1.098,0-2.027-0.186-2.791-0.559
		c-0.764-0.37-1.384-0.834-1.856-1.395c-0.474-0.559-0.834-1.134-1.078-1.723C164.451,88.875,164.233,87.772,164.233,86.596z
		 M166.919,85.542c0,1.168,0.192,2.354,0.583,3.558c0.39,1.205,0.948,2.086,1.684,2.643c0.736,0.555,1.534,0.832,2.396,0.832
		c1.099,0,2.018-0.438,2.758-1.309c0.737-0.875,1.106-2.215,1.106-4.028c0-1.511-0.221-2.812-0.659-3.906
		c-0.44-1.098-1.003-1.87-1.685-2.319c-0.683-0.451-1.438-0.677-2.26-0.677c-1.167,0-2.112,0.423-2.838,1.267
		C167.283,82.444,166.919,83.758,166.919,85.542z"/>
	<path fill="#B31B1B" d="M179.378,93.141V92.33c1.079-0.02,1.658-0.035,1.745-0.056c0.161-0.029,0.282-0.073,0.363-0.136
		c0.081-0.063,0.146-0.149,0.193-0.264c0.096-0.217,0.15-0.561,0.171-1.023c0.048-2.53,0.071-3.854,0.071-3.969v-1.688
		c0-0.759-0.015-1.574-0.042-2.443c-0.021-0.56-0.061-0.891-0.121-0.997c-0.062-0.104-0.172-0.183-0.327-0.234
		c-0.156-0.051-0.775-0.072-1.855-0.062v-0.812c1.914-0.266,3.312-0.61,4.193-1.035c0.19-0.096,0.318-0.143,0.384-0.143
		c0.066,0,0.118,0.022,0.157,0.07c0.037,0.049,0.057,0.118,0.057,0.213c0,0.064-0.005,0.143-0.015,0.227
		c-0.047,0.58-0.075,1.472-0.086,2.688c0.427-0.493,0.818-0.981,1.182-1.466c0.36-0.482,0.62-0.794,0.782-0.938
		c0.284-0.244,0.609-0.444,0.979-0.59c0.37-0.146,0.753-0.217,1.153-0.217c0.396,0,0.789,0.083,1.18,0.253l0.086,0.199
		c-0.146,1.26-0.224,2.368-0.243,3.327h-0.642c-0.217-0.456-0.47-0.786-0.759-0.998c-0.291-0.206-0.651-0.311-1.089-0.311
		c-0.729,0-1.35,0.301-1.861,0.901c-0.511,0.601-0.768,1.505-0.768,2.709V87c0,0.627,0.024,1.768,0.071,3.428
		c0.01,0.588,0.034,0.961,0.07,1.123c0.037,0.162,0.089,0.275,0.149,0.346c0.062,0.076,0.165,0.133,0.307,0.18
		c0.282,0.086,1.053,0.171,2.302,0.256v0.811c-1.667-0.064-3.087-0.102-4.264-0.102C181.692,93.04,180.518,93.076,179.378,93.141z"
		/>
	<path fill="#B31B1B" d="M191.192,93.141V92.33l1.356-0.016c0.2-0.008,0.355-0.041,0.466-0.106c0.111-0.062,0.191-0.14,0.252-0.233
		c0.104-0.188,0.169-0.525,0.198-1.01c0-0.121,0.024-1.483,0.07-4.08v-1.689c0-0.758-0.014-1.574-0.04-2.443
		c-0.03-0.56-0.073-0.891-0.137-0.996c-0.061-0.105-0.169-0.184-0.318-0.234c-0.153-0.053-0.768-0.073-1.849-0.063v-0.812
		c1.913-0.266,3.312-0.611,4.194-1.036c0.188-0.095,0.316-0.144,0.383-0.144c0.067,0,0.12,0.023,0.155,0.071
		c0.038,0.048,0.058,0.118,0.058,0.213c0,0.064-0.006,0.144-0.014,0.228c-0.028,0.341-0.06,1.064-0.087,2.16l2.646-2.26
		c0.775-0.283,1.512-0.424,2.204-0.424c0.767,0,1.491,0.154,2.179,0.467c0.69,0.312,1.205,0.707,1.552,1.18
		c0.348,0.475,0.574,1.07,0.689,1.793c0.066,0.428,0.102,1.613,0.102,3.568v2.512c0,1.234,0.031,2.074,0.099,2.52
		c0.047,0.283,0.118,0.48,0.218,0.588c0.1,0.11,0.256,0.18,0.464,0.209l1.521,0.041v0.811c-0.929-0.064-1.701-0.102-2.317-0.102
		c-0.532,0-1.412,0.036-2.644,0.102c0.133-2.342,0.199-3.817,0.199-4.436v-2.388c0-1.489-0.06-2.466-0.173-2.929
		c-0.158-0.637-0.524-1.146-1.095-1.537c-0.566-0.389-1.257-0.581-2.059-0.581c-0.713,0-1.362,0.169-1.951,0.505
		c-0.587,0.335-1.005,0.724-1.258,1.167c-0.25,0.438-0.376,1.181-0.376,2.224v1.719c0.045,2.465,0.071,3.795,0.071,3.994
		c0.021,0.478,0.077,0.819,0.17,1.039c0.039,0.084,0.098,0.158,0.175,0.221c0.075,0.062,0.195,0.111,0.357,0.15
		c0.056,0.008,0.579,0.022,1.572,0.041v0.811c-1.155-0.064-2.203-0.102-3.142-0.102C194.288,93.04,192.993,93.076,191.192,93.141z"
		/>
	<path fill="#B31B1B" d="M220.122,90.934l-0.453,1.022c-0.656,0.409-1.133,0.681-1.436,0.813c-0.446,0.201-0.958,0.367-1.529,0.508
		c-0.571,0.136-1.178,0.205-1.814,0.205c-1.249,0-2.38-0.262-3.396-0.783c-1.016-0.518-1.803-1.298-2.365-2.34
		c-0.564-1.036-0.848-2.251-0.848-3.646c0-1.088,0.149-2.072,0.447-2.947c0.3-0.875,0.639-1.522,1.019-1.939
		c0.274-0.305,0.698-0.654,1.276-1.045c0.58-0.396,1.154-0.704,1.724-0.934c0.748-0.312,1.558-0.467,2.43-0.467
		c1.061,0,2.021,0.241,2.88,0.726c0.856,0.481,1.483,1.14,1.883,1.976c0.398,0.834,0.596,1.775,0.596,2.827
		c0,0.267-0.021,0.587-0.071,0.968c-0.681,0.135-1.289,0.217-1.832,0.256c-1.021,0.077-2.04,0.113-3.064,0.113h-4.556
		c0.019,1.359,0.255,2.459,0.703,3.298c0.448,0.843,1.073,1.46,1.862,1.859c0.79,0.399,1.614,0.599,2.468,0.599
		c0.578,0,1.153-0.091,1.729-0.279c0.573-0.187,1.28-0.531,2.121-1.03L220.122,90.934z M211.01,85.124
		c0.267,0.028,0.768,0.058,1.507,0.085c1.412,0.051,2.385,0.07,2.917,0.07c1.259,0,2.086-0.021,2.484-0.07
		c0.012-0.228,0.016-0.4,0.016-0.525c0-1.498-0.305-2.596-0.91-3.299c-0.605-0.699-1.416-1.051-2.431-1.051
		c-1.072,0-1.933,0.383-2.587,1.151C211.352,82.252,211.021,83.467,211.01,85.124z"/>
	<path fill="#B31B1B" d="M222.016,93.141V92.33l1.336-0.016c0.211-0.008,0.368-0.041,0.479-0.106
		c0.105-0.062,0.192-0.14,0.248-0.233c0.102-0.188,0.164-0.525,0.184-1.006c0.013-0.125,0.043-1.485,0.101-4.076v-5.896
		c0-1.582-0.022-3.215-0.07-4.9c-0.04-1.135-0.094-1.771-0.157-1.902c-0.049-0.096-0.123-0.161-0.229-0.198
		c-0.143-0.067-0.802-0.103-1.973-0.103v-0.838c2.143-0.266,3.63-0.596,4.465-0.992c0.122-0.059,0.218-0.088,0.284-0.088
		c0.064,0,0.116,0.02,0.153,0.065c0.04,0.043,0.06,0.101,0.06,0.177c0,0.065-0.009,0.162-0.03,0.282l-0.015,0.472
		c-0.045,1.692-0.076,3.139-0.082,4.332l-0.031,2.217v7.371c0.041,2.463,0.062,3.791,0.071,3.992
		c0.01,0.476,0.067,0.816,0.173,1.035c0.037,0.085,0.095,0.159,0.171,0.223c0.076,0.062,0.191,0.11,0.342,0.149
		c0.067,0.009,0.6,0.022,1.589,0.041v0.812c-1.287-0.065-2.421-0.103-3.396-0.103C224.753,93.04,223.533,93.076,222.016,93.141z"/>
	<path fill="#B31B1B" d="M230.882,93.141V92.33l1.338-0.016c0.208-0.008,0.365-0.041,0.475-0.106
		c0.109-0.062,0.193-0.14,0.248-0.233c0.106-0.188,0.166-0.525,0.187-1.006c0.011-0.125,0.045-1.485,0.1-4.076v-5.896
		c0-1.582-0.021-3.215-0.071-4.9c-0.034-1.135-0.09-1.771-0.155-1.902c-0.047-0.096-0.124-0.161-0.229-0.198
		c-0.141-0.067-0.799-0.103-1.974-0.103v-0.838c2.143-0.266,3.631-0.596,4.465-0.992c0.121-0.059,0.217-0.088,0.283-0.088
		c0.067,0,0.119,0.02,0.155,0.065c0.038,0.043,0.059,0.101,0.059,0.177c0,0.065-0.011,0.162-0.03,0.282l-0.013,0.472
		c-0.049,1.692-0.078,3.139-0.085,4.332l-0.03,2.217v7.371c0.042,2.463,0.065,3.791,0.072,3.992c0.01,0.476,0.065,0.816,0.173,1.035
		c0.035,0.085,0.095,0.159,0.169,0.223c0.079,0.062,0.19,0.11,0.346,0.149c0.066,0.009,0.597,0.022,1.587,0.041v0.812
		c-1.289-0.065-2.42-0.103-3.396-0.103C233.622,93.04,232.401,93.076,230.882,93.141z"/>
	<path fill="#B31B1B" d="M246.625,73.869v-0.914c1.544,0.067,2.979,0.1,4.306,0.1c1.349,0,2.685-0.031,4.012-0.1v0.914
		c-1.112,0.018-1.792,0.062-2.038,0.146c-0.246,0.08-0.41,0.191-0.495,0.332c-0.122,0.19-0.197,0.65-0.226,1.377
		c-0.012,0.192-0.035,1.535-0.071,4.035v5.256c0,2.037,0.129,3.381,0.394,4.027c0.258,0.65,0.673,1.186,1.24,1.613
		c0.438,0.32,1.025,0.578,1.764,0.773c0.736,0.192,1.563,0.289,2.475,0.289c1.059,0,2.005-0.129,2.828-0.392
		c0.824-0.26,1.443-0.576,1.854-0.95c0.411-0.373,0.722-0.793,0.927-1.258c0.202-0.463,0.349-1.102,0.438-1.908
		c0.092-0.809,0.139-1.837,0.139-3.076v-4.377c0-1.287-0.025-2.548-0.072-3.775c-0.021-0.9-0.083-1.432-0.19-1.6
		c-0.109-0.168-0.284-0.289-0.53-0.369c-0.244-0.082-0.925-0.127-2.038-0.146v-0.914c1.562,0.067,2.704,0.101,3.42,0.101
		c0.651,0,1.83-0.032,3.534-0.101v0.914c-1.124,0.019-1.805,0.063-2.043,0.146c-0.242,0.08-0.412,0.192-0.504,0.334
		c-0.112,0.189-0.183,0.649-0.214,1.381c-0.007,0.188-0.026,1.531-0.057,4.029v4.762c0,2.339-0.163,3.973-0.489,4.899
		c-0.327,0.931-0.927,1.747-1.798,2.459c-0.654,0.527-1.496,0.94-2.522,1.234c-1.03,0.293-2.168,0.44-3.42,0.44
		c-1.46,0-2.725-0.172-3.796-0.521c-1.068-0.345-1.886-0.798-2.443-1.363c-0.562-0.562-0.945-1.136-1.15-1.725
		c-0.266-0.777-0.397-2.079-0.397-3.906v-6.28c0-1.287-0.018-2.549-0.045-3.777c-0.024-0.899-0.098-1.432-0.204-1.6
		c-0.109-0.167-0.286-0.287-0.527-0.367C248.44,73.932,247.754,73.887,246.625,73.869z"/>
	<path fill="#B31B1B" d="M268.307,93.141V92.33l1.357-0.016c0.201-0.008,0.354-0.041,0.469-0.106c0.108-0.062,0.188-0.14,0.25-0.233
		c0.101-0.188,0.169-0.525,0.199-1.01c0-0.121,0.021-1.483,0.068-4.08v-1.689c0-0.758-0.013-1.574-0.041-2.443
		c-0.027-0.56-0.072-0.891-0.136-0.996c-0.062-0.105-0.17-0.184-0.32-0.234c-0.15-0.053-0.767-0.073-1.848-0.063v-0.812
		c1.914-0.266,3.312-0.611,4.195-1.036c0.188-0.095,0.315-0.144,0.383-0.144c0.066,0,0.119,0.023,0.155,0.071
		s0.057,0.118,0.057,0.213c0,0.064-0.004,0.144-0.014,0.228c-0.026,0.341-0.059,1.064-0.086,2.16l2.646-2.26
		c0.776-0.283,1.511-0.424,2.203-0.424c0.765,0,1.493,0.154,2.179,0.467c0.69,0.312,1.205,0.707,1.553,1.18
		c0.348,0.475,0.577,1.07,0.69,1.793c0.066,0.428,0.1,1.613,0.1,3.568v2.512c0,1.234,0.035,2.074,0.101,2.52
		c0.046,0.283,0.12,0.48,0.218,0.588c0.101,0.11,0.255,0.18,0.462,0.209l1.521,0.041v0.811c-0.929-0.064-1.699-0.102-2.315-0.102
		c-0.534,0-1.412,0.036-2.644,0.102c0.132-2.342,0.198-3.817,0.198-4.436v-2.388c0-1.489-0.061-2.466-0.171-2.929
		c-0.163-0.637-0.527-1.146-1.098-1.537c-0.567-0.389-1.253-0.581-2.06-0.581c-0.712,0-1.36,0.169-1.948,0.505
		c-0.588,0.335-1.006,0.724-1.259,1.167c-0.251,0.438-0.376,1.181-0.376,2.224v1.719c0.047,2.465,0.07,3.795,0.07,3.994
		c0.021,0.478,0.077,0.819,0.173,1.039c0.036,0.084,0.095,0.158,0.173,0.221c0.076,0.062,0.195,0.111,0.357,0.15
		c0.057,0.008,0.58,0.022,1.572,0.041v0.811c-1.154-0.064-2.205-0.102-3.144-0.102C271.405,93.04,270.108,93.076,268.307,93.141z"/>
	<path fill="#B31B1B" d="M286.177,81.444v-0.813c1.841-0.205,3.383-0.604,4.635-1.192l0.313,0.228
		c-0.076,2.018-0.114,3.564-0.114,4.633v2.588c0.049,2.465,0.075,3.795,0.085,3.994c0.01,0.478,0.062,0.819,0.157,1.038
		c0.045,0.085,0.106,0.159,0.187,0.222c0.074,0.062,0.188,0.111,0.34,0.15c0.058,0.008,0.583,0.021,1.576,0.041v0.811
		c-1.44-0.064-2.593-0.102-3.453-0.102c-0.759,0-2.002,0.036-3.726,0.102v-0.811l1.357-0.016c0.199-0.008,0.355-0.041,0.469-0.106
		c0.107-0.062,0.19-0.14,0.25-0.233c0.104-0.188,0.168-0.525,0.199-1.01c0-0.121,0.021-1.483,0.068-4.08v-2.5
		c0-1.414-0.047-2.25-0.141-2.516c-0.059-0.145-0.158-0.25-0.307-0.32C287.928,81.477,287.297,81.444,286.177,81.444z
		 M289.647,73.127c0.445,0,0.821,0.157,1.13,0.469c0.31,0.312,0.462,0.692,0.462,1.14c0,0.435-0.155,0.81-0.471,1.123
		c-0.312,0.31-0.686,0.469-1.121,0.469c-0.443,0-0.823-0.159-1.137-0.469c-0.312-0.313-0.473-0.688-0.473-1.123
		c0-0.446,0.159-0.826,0.473-1.14C288.824,73.284,289.204,73.127,289.647,73.127z"/>
	<path fill="#B31B1B" d="M300.686,93.283c-0.368-0.968-0.627-1.616-0.768-1.945l-1.164-2.717l-2.913-6.779
		c-0.193-0.428-0.353-0.711-0.485-0.854c-0.131-0.143-0.278-0.232-0.439-0.271c-0.135-0.039-0.482-0.064-1.054-0.086v-0.853
		c1.576,0.067,2.723,0.101,3.44,0.101c0.797,0,1.887-0.033,3.27-0.101v0.853c-1.022,0.03-1.625,0.096-1.805,0.198
		c-0.181,0.108-0.271,0.248-0.271,0.431c0,0.284,0.19,0.894,0.568,1.83l1.736,4.318l0.412,0.965
		c0.465,1.126,0.783,1.881,0.955,2.258l1.418-3.22c0.086-0.19,0.518-1.256,1.292-3.196c0.456-1.127,0.758-1.988,0.911-2.587
		c0.038-0.163,0.056-0.304,0.056-0.429c0-0.156-0.062-0.273-0.185-0.338c-0.229-0.125-0.834-0.2-1.819-0.23v-0.853
		c1.412,0.067,2.318,0.101,2.715,0.101c0.332,0,1.239-0.033,2.717-0.101v0.853c-0.589,0.03-0.978,0.1-1.174,0.207
		c-0.191,0.109-0.386,0.336-0.575,0.676c-0.135,0.229-0.645,1.252-1.537,3.07l-1.361,2.914c-0.237,0.521-1.058,2.448-2.46,5.785
		H300.686z"/>
	<path fill="#B31B1B" d="M321.849,90.934l-0.456,1.022c-0.657,0.409-1.131,0.681-1.436,0.813c-0.446,0.201-0.954,0.367-1.526,0.508
		c-0.575,0.136-1.179,0.205-1.812,0.205c-1.254,0-2.386-0.262-3.398-0.783c-1.015-0.518-1.805-1.298-2.366-2.34
		c-0.562-1.036-0.847-2.251-0.847-3.646c0-1.088,0.147-2.072,0.448-2.947c0.3-0.875,0.637-1.522,1.016-1.939
		c0.273-0.305,0.702-0.654,1.282-1.045c0.574-0.396,1.147-0.704,1.718-0.934c0.749-0.312,1.56-0.467,2.43-0.467
		c1.062,0,2.021,0.241,2.879,0.726c0.859,0.481,1.488,1.14,1.886,1.976c0.396,0.834,0.594,1.775,0.594,2.827
		c0,0.267-0.021,0.587-0.069,0.968c-0.683,0.135-1.291,0.217-1.831,0.256c-1.022,0.077-2.044,0.113-3.063,0.113h-4.557
		c0.02,1.359,0.252,2.459,0.7,3.298c0.45,0.843,1.073,1.46,1.865,1.859c0.79,0.399,1.613,0.599,2.468,0.599
		c0.575,0,1.15-0.091,1.727-0.279c0.572-0.187,1.28-0.531,2.125-1.03L321.849,90.934z M312.737,85.124
		c0.268,0.028,0.77,0.058,1.506,0.085c1.41,0.051,2.385,0.07,2.914,0.07c1.262,0,2.09-0.021,2.486-0.07
		c0.01-0.228,0.015-0.4,0.015-0.525c0-1.498-0.302-2.596-0.911-3.299c-0.604-0.699-1.416-1.051-2.429-1.051
		c-1.069,0-1.934,0.383-2.588,1.151C313.077,82.252,312.747,83.467,312.737,85.124z"/>
	<path fill="#B31B1B" d="M323.712,93.141V92.33c1.079-0.02,1.661-0.035,1.745-0.056c0.163-0.029,0.282-0.073,0.363-0.136
		c0.081-0.063,0.147-0.149,0.196-0.264c0.095-0.217,0.149-0.561,0.17-1.023c0.049-2.53,0.069-3.854,0.069-3.969v-1.688
		c0-0.759-0.015-1.574-0.04-2.443c-0.021-0.56-0.059-0.891-0.121-0.997c-0.062-0.104-0.17-0.183-0.328-0.234
		c-0.157-0.051-0.773-0.072-1.856-0.062v-0.812c1.914-0.266,3.312-0.61,4.194-1.035c0.188-0.096,0.318-0.143,0.386-0.143
		c0.065,0,0.117,0.022,0.154,0.07c0.037,0.049,0.059,0.118,0.059,0.213c0,0.064-0.007,0.143-0.015,0.227
		c-0.047,0.58-0.078,1.472-0.085,2.688c0.425-0.493,0.818-0.981,1.179-1.466c0.361-0.482,0.62-0.794,0.782-0.938
		c0.285-0.244,0.61-0.444,0.979-0.59c0.372-0.146,0.753-0.217,1.152-0.217c0.396,0,0.791,0.083,1.179,0.253l0.086,0.199
		c-0.142,1.26-0.223,2.368-0.242,3.327h-0.64c-0.22-0.456-0.471-0.786-0.763-0.998c-0.287-0.206-0.648-0.311-1.084-0.311
		c-0.73,0-1.354,0.301-1.862,0.901c-0.513,0.603-0.768,1.504-0.768,2.708v1.464c0,0.627,0.021,1.769,0.07,3.427
		c0.008,0.588,0.033,0.963,0.07,1.125c0.036,0.16,0.089,0.274,0.149,0.344c0.062,0.076,0.163,0.134,0.303,0.181
		c0.286,0.086,1.054,0.171,2.307,0.256v0.812c-1.669-0.065-3.093-0.103-4.265-0.103C326.025,93.04,324.851,93.076,323.712,93.141z"
		/>
	<path fill="#B31B1B" d="M335.956,88.848h0.85c0.011,0.553,0.038,0.985,0.086,1.31c0.049,0.321,0.129,0.636,0.243,0.946
		c0.114,0.306,0.291,0.566,0.524,0.779c0.24,0.211,0.498,0.377,0.777,0.496c0.281,0.121,0.566,0.197,0.854,0.236
		c0.291,0.036,0.729,0.057,1.319,0.057c0.966,0,1.763-0.255,2.385-0.771c0.622-0.508,0.934-1.209,0.934-2.102
		c0-0.396-0.098-0.748-0.292-1.054c-0.194-0.302-0.476-0.541-0.841-0.709c-0.365-0.171-1.149-0.392-2.354-0.669
		c-1.208-0.273-1.984-0.473-2.336-0.596c-0.533-0.2-0.955-0.439-1.271-0.727c-0.312-0.283-0.558-0.646-0.743-1.08
		c-0.187-0.436-0.278-0.908-0.278-1.423c0-0.745,0.198-1.438,0.591-2.067c0.396-0.629,1.012-1.141,1.858-1.535
		c0.844-0.393,1.768-0.588,2.761-0.588c0.601,0,1.288,0.08,2.08,0.246c0.787,0.168,1.427,0.373,1.919,0.619
		c-0.064,1.053-0.112,2.123-0.139,3.213h-0.813c-0.046-0.693-0.098-1.146-0.161-1.363c-0.062-0.219-0.146-0.413-0.252-0.583
		c-0.103-0.17-0.285-0.353-0.54-0.548c-0.257-0.194-0.587-0.368-0.988-0.521c-0.405-0.151-0.899-0.228-1.491-0.228
		c-0.834,0-1.507,0.248-2.018,0.74c-0.506,0.494-0.761,1.069-0.761,1.733c0,0.37,0.076,0.687,0.221,0.951
		c0.147,0.267,0.346,0.481,0.594,0.647c0.247,0.168,0.591,0.314,1.038,0.445l2.364,0.586c1.196,0.303,2.021,0.562,2.471,0.78
		c0.452,0.219,0.812,0.558,1.089,1.017c0.274,0.461,0.414,1.012,0.414,1.654c0,1.282-0.531,2.396-1.588,3.348
		c-1.059,0.953-2.477,1.433-4.25,1.433c-0.812,0-1.901-0.124-3.26-0.371c-0.75-0.142-1.152-0.24-1.211-0.302
		c-0.035-0.024-0.055-0.071-0.055-0.139c0-0.066,0.006-0.146,0.025-0.244c0.087-0.406,0.145-0.805,0.174-1.19
		C335.911,90.893,335.935,90.08,335.956,88.848z"/>
	<path fill="#B31B1B" d="M347.419,81.444v-0.813c1.841-0.205,3.385-0.604,4.634-1.192l0.312,0.228
		c-0.072,2.018-0.11,3.564-0.11,4.633v2.588c0.044,2.465,0.074,3.795,0.084,3.994c0.009,0.478,0.062,0.819,0.156,1.038
		c0.049,0.085,0.108,0.159,0.185,0.222c0.078,0.062,0.188,0.111,0.342,0.15c0.06,0.008,0.583,0.021,1.58,0.041v0.811
		c-1.442-0.064-2.593-0.102-3.458-0.102c-0.755,0-1.998,0.036-3.723,0.102v-0.811l1.357-0.016c0.199-0.008,0.358-0.041,0.465-0.106
		c0.109-0.062,0.195-0.14,0.25-0.233c0.107-0.188,0.173-0.525,0.202-1.01c0-0.121,0.021-1.483,0.073-4.08v-2.5
		c0-1.414-0.052-2.25-0.146-2.516c-0.054-0.145-0.157-0.25-0.305-0.32C349.171,81.477,348.536,81.444,347.419,81.444z
		 M350.889,73.127c0.441,0,0.82,0.157,1.13,0.469c0.307,0.312,0.46,0.692,0.46,1.14c0,0.435-0.153,0.81-0.47,1.123
		c-0.312,0.31-0.686,0.469-1.12,0.469c-0.448,0-0.826-0.159-1.139-0.469c-0.312-0.313-0.47-0.688-0.47-1.123
		c0-0.446,0.156-0.826,0.47-1.14C350.063,73.284,350.441,73.127,350.889,73.127z"/>
	<path fill="#B31B1B" d="M355.202,81.998v-0.599c0.911-0.356,1.638-0.685,2.175-0.968c0-2.254,0-3.695,0-4.319
		c0.984-0.343,1.786-0.706,2.402-1.095l0.339,0.283c-0.104,0.787-0.217,2.521-0.339,5.203c0.757,0.008,1.212,0.014,1.365,0.014
		c0.084,0,0.573-0.01,1.464-0.026c0.491-0.013,0.862-0.028,1.108-0.06l0.099,0.101l-0.298,1.321
		c-0.598-0.01-1.146-0.014-1.647-0.014s-1.199,0.004-2.091,0.014l-0.071,5.783c-0.025,1.416-0.019,2.258,0.026,2.533
		c0.048,0.275,0.138,0.514,0.271,0.719c0.131,0.203,0.304,0.365,0.517,0.488c0.214,0.123,0.575,0.221,1.084,0.286
		c0.388,0,0.7-0.019,0.943-0.051c0.238-0.033,0.543-0.115,0.911-0.25l0.171,0.555c-0.443,0.353-0.877,0.718-1.295,1.097
		c-0.356,0.133-0.693,0.219-1.006,0.265c-0.312,0.04-0.674,0.062-1.077,0.062c-0.503,0-0.903-0.057-1.199-0.171
		c-0.302-0.112-0.571-0.271-0.818-0.477c-0.247-0.2-0.448-0.458-0.612-0.774c-0.164-0.312-0.269-0.806-0.318-1.477
		c0.011-0.646,0.029-1.352,0.057-2.119c0.012-0.15,0.016-0.318,0.016-0.5v-5.896h-0.583
		C356.319,81.926,355.788,81.949,355.202,81.998z"/>
	<path fill="#B31B1B" d="M365.555,100.745l0.728-2.188h0.341c0.179,0.151,0.337,0.273,0.46,0.361
		c0.13,0.092,0.266,0.159,0.414,0.208c0.147,0.048,0.361,0.069,0.646,0.069c0.294,0,0.58-0.064,0.858-0.191
		c0.28-0.125,0.543-0.328,0.78-0.602c0.242-0.278,0.532-0.75,0.861-1.424c0.503-1.014,0.951-2.049,1.348-3.1
		c-0.304-0.854-0.667-1.812-1.097-2.873l-2.264-5.599c-0.67-1.667-1.221-2.944-1.65-3.828c-0.17-0.351-0.352-0.585-0.545-0.702
		s-0.629-0.214-1.301-0.289v-0.812c1.174,0.067,2.337,0.1,3.486,0.1c1.118,0,2.196-0.032,3.229-0.1v0.812
		c-0.975,0.066-1.535,0.127-1.676,0.182c-0.247,0.097-0.369,0.264-0.369,0.509c0,0.149,0.079,0.462,0.24,0.932
		c0.366,1.167,0.721,2.164,1.055,2.987l0.896,2.222c0.543,1.331,0.996,2.407,1.367,3.231l0.752-1.682
		c0.294-0.662,0.808-1.927,1.547-3.783c0.736-1.86,1.169-3.008,1.291-3.445c0.039-0.152,0.059-0.284,0.059-0.398
		c0-0.18-0.072-0.318-0.219-0.42c-0.148-0.1-0.721-0.195-1.716-0.291v-0.854c1.104,0.066,2.072,0.1,2.914,0.1
		c0.853,0,1.698-0.031,2.53-0.1l-0.142,0.854c-0.484,0.021-0.856,0.125-1.123,0.312c-0.265,0.19-0.666,0.827-1.202,1.914
		c-0.534,1.084-1.528,3.219-2.979,6.403l-3.284,7.676c-0.529,1.24-0.991,2.127-1.38,2.656c-0.387,0.533-0.851,0.937-1.391,1.211
		c-0.54,0.275-1.133,0.41-1.775,0.41c-0.313,0-0.596-0.035-0.848-0.104C366.151,101.039,365.87,100.916,365.555,100.745z"/>
</g>
<g>
	<path fill="#B31B1B" d="M45.544,91.237c6.785,5.349,13.469,8.177,13.752,8.293l0.517,0.219l0.519-0.222
		c0.283-0.124,6.944-2.991,13.708-8.282c9.108-7.126,13.923-15.237,13.923-23.464l-0.008-37.614l-56.35,0.005l-0.002,36.958
		C31.603,75.7,36.421,84.033,45.544,91.237z M58.531,79.707c-0.29-0.101-0.61-0.176-1.01-0.176c-0.021,0-0.043,0-0.064,0
		c-1.371,0-2.396,0.095-3.484,0.191c-1.074,0.1-2.188,0.201-3.82,0.235c-0.749,0.017-1.424,0.011-1.934,0V62.27
		c0.077,0,0.154,0,0.233,0c0.68,0.007,1.514,0,2.557-0.02c0.886-0.023,1.856-0.129,2.981-0.249c0.618-0.067,1.277-0.135,2.015-0.2
		c1.171-0.127,2.249,0.082,2.249,0.082c0.109,0.025,0.187,0.061,0.277,0.09V79.707z M85.291,67.781
		c0,15.396-18.909,25.836-24.478,28.572v-14.01c0.105-0.1,0.201-0.201,0.279-0.289c0.277-0.324,0.453-0.52,0.987-0.521
		c1.287,0.02,2.256,0.083,3.36,0.186c1.056,0.094,2.248,0.205,3.948,0.242c1.677,0.041,2.983-0.033,3.037-0.037l0.948-0.051
		l-0.001-5.232h2.217V73.85H73.37l-0.001-5.066h2.219v-2.788h-2.22l-0.002-5.691l-0.975-0.023c-0.358-0.01-0.769-0.01-1.255-0.008
		c-0.68-0.008-1.486,0-2.51-0.023c-0.797-0.018-1.733-0.117-2.812-0.234c-0.628-0.066-1.306-0.137-2.009-0.2
		c-1.514-0.175-2.85,0.101-2.93,0.121c-0.023,0.006-0.041,0.014-0.064,0.02v-5.376h24.476L85.291,67.781z M60.814,79.795V62.062
		c0.129-0.062,0.283-0.122,0.494-0.172c0.013-0.004,1.098-0.225,2.299-0.084c0.716,0.062,1.379,0.129,1.998,0.201
		c1.124,0.115,2.094,0.221,2.977,0.244c0.891,0.021,1.629,0.021,2.252,0.021c0.187,0,0.367,0,0.535,0l0.002,17.688
		c-0.509,0.01-1.181,0.02-1.934,0c-1.631-0.035-2.743-0.138-3.817-0.234c-1.101-0.103-2.087-0.196-3.545-0.193
		C61.558,79.531,61.156,79.643,60.814,79.795z M34.271,32.84l51.017-0.006l0.001,19.073H34.27L34.271,32.84z M34.269,54.578h24.262
		V59.9c-0.396-0.069-1.508-0.231-2.728-0.09c-0.722,0.066-1.394,0.137-2.022,0.203c-1.084,0.117-2.016,0.217-2.82,0.234
		c-1.022,0.023-1.836,0.025-2.509,0.023c-0.483,0-0.897,0-1.258,0.008l-0.978,0.023v5.139H43.82v2.793h2.396v5.139H43.82v2.784
		h2.396v5.716l0.943,0.05c0.057,0.006,1.357,0.072,3.041,0.037c1.7-0.037,2.895-0.148,3.949-0.242
		c1.086-0.098,2.025-0.185,3.307-0.185c0.504-0.006,0.672,0.149,0.943,0.493c0.036,0.046,0.086,0.099,0.131,0.148V96.23
		c-5.884-2.893-24.262-13.208-24.262-29.1L34.269,54.578z"/>
	<path fill="#B31B1B" d="M55.571,34.75H41.332v0.997c-0.004,3.11-0.008,8.368,0.013,8.608c0.067,1.078,0.781,2.055,2.176,2.984
		c1.72,1.152,4.282,2.652,4.39,2.717l0.488,0.286l0.492-0.271c0.117-0.064,2.883-1.57,4.609-2.732
		c2.021-1.348,2.055-2.574,2.068-2.984c0.018-0.222,0.012-4.803,0.003-8.608V34.75z M43.335,36.748h10.238
		c0.001,0.832,0.002,1.725,0.002,2.593H43.331C43.333,38.472,43.333,37.58,43.335,36.748z M53.569,44.3
		c-0.014,0.497-0.651,1.024-1.181,1.376c-1.229,0.826-3.078,1.877-3.955,2.368c-0.835-0.501-2.567-1.542-3.795-2.369
		c-0.801-0.532-1.275-1.061-1.301-1.45c-0.004-0.146-0.006-1.332-0.006-2.882h10.245C53.577,42.902,53.575,44.111,53.569,44.3z"/>
	<path fill="#B31B1B" d="M79.8,34.326H65.243v0.999c-0.003,3.908-0.003,8.606,0.011,8.851c0.081,1.084,0.808,2.081,2.229,3.027
		c1.758,1.18,4.383,2.72,4.495,2.785l0.487,0.287l0.495-0.274c0.118-0.06,2.957-1.603,4.731-2.798
		c2.071-1.381,2.101-2.635,2.107-3.05c0.016-0.222,0.011-4.924,0.002-8.829V34.326z M77.799,44.111
		c-0.012,0.516-0.668,1.061-1.218,1.434c-1.27,0.846-3.187,1.929-4.08,2.43c-0.852-0.507-2.636-1.584-3.903-2.43
		c-0.39-0.263-1.304-0.935-1.347-1.52c-0.002-0.055-0.003-0.24-0.004-0.525l5.045-3.645l5.514,3.676
		C77.804,43.836,77.802,44.041,77.799,44.111z M72.248,37.418l-5.007,3.617c-0.002-1.438-0.002-3.172,0.001-4.708h10.557
		c0.005,1.564,0.011,3.339,0.011,4.803L72.248,37.418z"/>
	<path fill="#B31B1B" d="M63.412,66.022l0.952,0.097c0.647,0.075,1.207,0.129,1.693,0.141l2.944,0.086l0.046-2.008l-2.94-0.08
		c-0.44-0.009-0.943-0.062-1.529-0.125l-0.973-0.099c-0.261-0.028-0.51-0.033-0.737-0.022l0.087,1.996
		C63.091,66,63.245,66.008,63.412,66.022z"/>
	<path fill="#B31B1B" d="M66.122,69.805c-0.419-0.014-0.901-0.066-1.45-0.125c-0.331-0.037-0.683-0.073-1.041-0.105
		c-0.255-0.027-0.495-0.031-0.72-0.027l0.032,2.002c0.142-0.004,0.302,0,0.487,0.02c0.369,0.033,0.71,0.068,1.029,0.104
		c0.613,0.065,1.148,0.12,1.616,0.135c0.613,0.008,1.508,0.035,2.174,0.049l0.769,0.021l0.047-1.995l-0.767-0.024
		C67.634,69.84,66.734,69.812,66.122,69.805z"/>
	<path fill="#B31B1B" d="M66.122,75.342c-0.428-0.015-0.914-0.064-1.476-0.129c-0.327-0.035-0.668-0.07-1.013-0.103
		c-0.266-0.028-0.51-0.037-0.736-0.028l0.061,1.997c0.137,0,0.29,0,0.472,0.021c0.354,0.033,0.689,0.074,0.999,0.101
		c0.625,0.071,1.168,0.126,1.644,0.142l0.829,0.021c0.848,0.022,1.79,0.045,2.118,0.053l0.04-2.004
		c-0.33-0.007-1.269-0.024-2.104-0.051L66.122,75.342z"/>
	<path fill="#B31B1B" d="M53.471,66.236c0.489-0.01,1.047-0.069,1.694-0.143c0.3-0.029,0.618-0.062,0.957-0.101
		c0.156-0.01,0.314-0.021,0.453-0.015l0.031-2.006c-0.206,0-0.436,0.011-0.67,0.031c-0.354,0.03-0.683,0.068-0.988,0.104
		c-0.58,0.058-1.077,0.118-1.522,0.123l-2.94,0.075l0.047,2.004L53.471,66.236z"/>
	<path fill="#B31B1B" d="M54.966,69.643c-0.58,0.062-1.084,0.119-1.523,0.13l-2.941,0.077l0.047,2.002l2.939-0.075
		c0.492-0.013,1.049-0.075,1.695-0.144l0.939-0.099c0.151-0.012,0.3-0.021,0.438-0.013l0.092-2c-0.208-0.012-0.447,0-0.702,0.021
		L54.966,69.643z"/>
	<path fill="#B31B1B" d="M54.968,75.178c-0.582,0.064-1.084,0.123-1.623,0.131c-0.931,0.025-2.405,0.072-2.84,0.082l0.037,2
		c0.438-0.014,1.923-0.053,2.948-0.08c0.487-0.012,1.046-0.073,1.694-0.144l0.973-0.097c0.147-0.018,0.295-0.021,0.432-0.018
		l0.03-1.998c-0.212-0.006-0.446,0-0.667,0.021L54.968,75.178z"/>
	<path fill="#B31B1B" d="M9.028,59.881c2.502,0,4.035-1.601,4.222-4.381c0.027-0.547-0.014-1.15-0.149-1.895l-0.046-0.244
		l-2.066-0.02l0.193,0.424c0.148,0.331,0.236,1.029,0.203,1.614c-0.094,1.446-1.182,2.331-2.715,2.226
		c-1.559-0.098-2.549-1.109-2.466-2.521c0.03-0.459,0.109-0.967,0.489-1.532l0.258-0.399l-2.038-0.299l-0.095,0.203
		c-0.26,0.552-0.436,1.255-0.473,1.875c-0.179,2.908,1.426,4.755,4.299,4.936C8.773,59.877,8.902,59.881,9.028,59.881z"/>
	<path fill="#B31B1B" d="M9.355,50.06c0.554,0.154,1.094,0.235,1.604,0.235c1.898,0,3.305-1.108,3.855-3.042
		c0.328-1.156,0.235-2.25-0.271-3.152c-0.552-1.002-1.557-1.719-2.894-2.098c-0.534-0.152-1.054-0.227-1.544-0.227
		c-1.912,0-3.322,1.107-3.868,3.039C5.527,47.301,6.724,49.308,9.355,50.06z M8.033,45.324c0.302-1.078,1.217-1.305,1.934-1.305
		c0.338,0,0.706,0.055,1.066,0.156c0.875,0.251,1.557,0.707,1.865,1.258c0.217,0.389,0.256,0.825,0.121,1.31
		c-0.31,1.081-1.209,1.307-1.912,1.307c-0.356,0-0.737-0.058-1.139-0.17C8.832,47.554,7.642,46.693,8.033,45.324z"/>
	<path fill="#B31B1B" d="M17.973,38.834l-2.946-1.576l0.095-0.183c0.276-0.528,0.491-0.481,0.946-0.427l2.875,0.366l1.135-2.144
		l-3.82-0.398c-0.255-0.02-0.533-0.011-0.747,0.041c0.032-0.814-0.391-1.579-1.163-1.99c-0.434-0.229-0.85-0.346-1.237-0.346
		c-1.396,0-2.138,1.408-2.794,2.652l-1,1.877l7.629,4.064L17.973,38.834z M13.482,36.188l-0.109,0.194l-1.384-0.739l0.104-0.194
		c0.349-0.643,0.723-1.177,1.313-0.865c0.21,0.115,0.333,0.246,0.385,0.41C13.9,35.344,13.663,35.842,13.482,36.188z"/>
	<polygon fill="#B31B1B" points="22.74,31.316 18.82,28.066 24.38,29.332 25.929,27.466 19.277,21.945 17.924,23.585 21.843,26.836 
		16.29,25.553 14.733,27.433 21.384,32.947 	"/>
	<polygon fill="#B31B1B" points="32.353,21.974 31.175,20.523 28.763,22.488 27.714,21.198 29.916,19.413 28.728,17.965 
		26.537,19.752 25.667,18.678 28.06,16.731 26.881,15.281 22.79,18.615 28.242,25.318 	"/>
	<polygon fill="#B31B1B" points="39.527,17.691 38.603,16.056 35.927,17.564 32.605,11.664 30.691,12.746 34.925,20.271 	"/>
	<polygon fill="#B31B1B" points="46.782,14.912 46.14,13.156 43.251,14.203 40.946,7.838 38.883,8.587 41.821,16.706 	"/>
	<path fill="#B31B1B" d="M55.48,13.482c0.172,0,0.35-0.011,0.528-0.027c1.196-0.102,2.074-0.477,2.618-1.113
		c0.512-0.611,0.727-1.457,0.637-2.51L58.816,4.41L56.63,4.588l0.408,4.932c0.145,1.74-0.554,2.021-1.177,2.08
		c-0.056,0-0.109,0.006-0.159,0.006c-0.512,0-1.213-0.193-1.352-1.863l-0.404-4.93l-2.182,0.182l0.447,5.423
		C52.378,12.42,53.503,13.482,55.48,13.482z"/>
	<polygon fill="#B31B1B" points="65.372,8.323 67.239,13.719 69.643,14.045 70.804,5.479 68.702,5.195 68.02,10.246 66.156,4.851 
		63.747,4.525 62.589,13.094 64.691,13.377 	"/>
	<polygon fill="#B31B1B" points="77.29,7.33 75.203,6.668 72.613,14.919 74.704,15.572 	"/>
	<polygon fill="#B31B1B" points="88.122,12.184 86.148,11.191 81.98,15.433 82.905,9.557 80.816,8.492 79.533,17.533 81.66,18.603 	
		"/>
	<polygon fill="#B31B1B" points="90.285,24.539 91.437,23.072 88.98,21.153 90.004,19.842 92.23,21.588 93.38,20.117 91.15,18.371 
		92.001,17.284 94.435,19.184 95.589,17.72 91.43,14.464 86.109,21.271 	"/>
	<path fill="#B31B1B" d="M93.861,28.163l2.509-2.201l0.14,0.162c0.322,0.368,0.332,0.524,0.066,1.037l-1.358,2.558l1.602,1.822
		l1.728-3.444c0.06-0.124,0.184-0.393,0.224-0.702c0.74,0.324,1.631,0.178,2.274-0.385c1.859-1.637,0.372-3.334-0.713-4.57
		l-1.42-1.618l-6.5,5.701L93.861,28.163z M98.948,23.701l0.148,0.17c0.309,0.357,0.628,0.758,0.6,1.09
		c-0.004,0.152-0.089,0.295-0.255,0.441c-0.161,0.139-0.317,0.212-0.478,0.212c-0.368,0-0.752-0.38-1.044-0.711l-0.146-0.168
		L98.948,23.701z"/>
	<path fill="#B31B1B" d="M101.914,35.078c-0.425,0.25-0.955-0.174-1.197-0.58c-0.269-0.459-0.424-1.033-0.442-1.654l-0.018-0.452
		l-1.977,0.913l0.14,0.442c0.195,0.668,0.316,1.071,0.734,1.78c0.703,1.189,1.639,1.846,2.63,1.846c0.462,0,0.928-0.138,1.39-0.417
		c1.53-0.903,1.289-2.34,1.116-3.39c-0.121-0.742-0.18-1.201,0.129-1.385c0.154-0.087,0.297-0.13,0.433-0.13
		c0.396,0,0.659,0.376,0.756,0.534c0.251,0.425,0.415,0.93,0.484,1.449l0.054,0.401l1.798-0.813l-0.049-0.238
		c-0.126-0.611-0.373-1.224-0.752-1.869c-0.941-1.583-2.486-2.096-3.931-1.24c-1.479,0.871-1.266,2.277-1.105,3.299
		C102.239,34.385,102.292,34.857,101.914,35.078z"/>
	
		<rect x="102.163" y="39.137" transform="matrix(0.9259 -0.3778 0.3778 0.9259 -7.3083 43.2155)" fill="#B31B1B" width="8.643" height="2.193"/>
	<polygon fill="#B31B1B" points="110.935,45.741 104.358,47.355 104.878,49.49 111.458,47.867 112.006,50.078 113.815,49.633 
		112.204,43.09 110.386,43.533 	"/>
	<polygon fill="#B31B1B" points="105.875,56.213 105.997,58.402 109.39,58.212 114.794,60.984 114.667,58.605 111.512,57.041 
		114.474,55.182 114.333,52.613 109.266,56.025 	"/>
	<polygon fill="#B31B1B" points="10.71,75.993 12.501,75.475 11.751,72.87 13.072,72.487 13.867,75.229 15.662,74.705 14.26,69.848 
		5.95,72.244 6.57,74.361 9.958,73.381 	"/>
	<path fill="#B31B1B" d="M18.408,83.158c0.337-0.998,0.23-2.105-0.318-3.207c-0.763-1.561-2.031-2.416-3.552-2.416
		c-0.732,0-1.503,0.195-2.286,0.58c-1.264,0.621-2.121,1.508-2.479,2.564c-0.342,0.988-0.227,2.099,0.32,3.203
		c0.761,1.547,2.032,2.397,3.588,2.397c0.742,0,1.518-0.196,2.294-0.577C17.203,85.098,18.042,84.221,18.408,83.158z M14.97,83.659
		c-0.549,0.271-1.093,0.414-1.576,0.414c-0.75,0-1.294-0.343-1.629-1.015c-0.224-0.459-0.266-0.905-0.119-1.33
		c0.203-0.596,0.789-1.166,1.609-1.568c0.51-0.248,1.035-0.385,1.512-0.385c0.768,0,1.326,0.337,1.646,1.002
		c0.224,0.453,0.26,0.9,0.112,1.335C16.319,82.713,15.751,83.283,14.97,83.659z"/>
	<path fill="#B31B1B" d="M24.363,89.852l-3.871,3.08c-1.042,0.834-1.788,0.908-2.389,0.151c-0.246-0.311-0.349-0.608-0.311-0.907
		c0.051-0.431,0.39-0.891,1.012-1.387l3.864-3.074l-1.376-1.726l-4.258,3.379c-0.885,0.704-1.357,1.495-1.395,2.353
		c-0.039,0.793,0.3,1.646,1.007,2.526c0.837,1.058,1.737,1.588,2.683,1.588c0.699,0,1.42-0.291,2.148-0.868l4.261-3.386
		L24.363,89.852z"/>
	<polygon fill="#B31B1B" points="31.711,96.885 28.482,100.828 29.711,95.242 27.802,93.688 22.325,100.375 23.986,101.721 
		27.218,97.771 26.002,103.377 27.888,104.926 33.366,98.236 	"/>
	<path fill="#B31B1B" d="M38.093,100.973l-2.225-1.119l-3.887,7.727l2.227,1.112c1.07,0.54,2.007,0.799,2.863,0.799
		c1.495,0,2.669-0.817,3.485-2.44C41.843,104.49,41.019,102.446,38.093,100.973z M38.521,106.022
		c-0.447,0.895-1.222,1.401-2.125,1.401c-0.369,0-0.735-0.091-1.065-0.259l-0.534-0.261l2.207-4.395l0.531,0.271
		c0.555,0.278,0.983,0.767,1.174,1.344C38.904,104.727,38.839,105.385,38.521,106.022z"/>
	<polygon fill="#B31B1B" points="42.863,112.377 48.034,113.754 48.515,111.954 45.474,111.137 45.898,109.538 48.661,110.274 
		49.147,108.475 46.382,107.735 46.734,106.399 49.749,107.201 50.238,105.402 45.085,104.022 	"/>
	<path fill="#B31B1B" d="M55.611,106.07l-2.495-0.145l-0.483,8.633l2.484,0.143c0.191,0.012,0.381,0.016,0.568,0.016
		c2.896,0,4.445-1.363,4.599-4.052c0.071-1.333-0.229-2.39-0.909-3.151C58.593,106.643,57.36,106.17,55.611,106.07z M55.534,112.852
		l-0.595-0.029l0.283-4.898l0.586,0.031c1.163,0.062,2.293,0.973,2.205,2.573C57.915,112.195,56.66,112.913,55.534,112.852z"/>
	<path fill="#B31B1B" d="M67.892,105.418l-1.469,9.149l2.262-0.488l0.298-1.938l2.774-0.606l1.056,1.668l2.369-0.519l-5.116-7.729
		L67.892,105.418z M69.252,110.17l0.276-2.258l1.18,1.944L69.252,110.17z"/>
	<polygon fill="#B31B1B" points="76.104,109.885 76.853,111.961 78.932,111.213 78.175,109.131 	"/>
	<path fill="#B31B1B" d="M80.314,101.139l-2.194,1.183l4.124,7.603l2.188-1.188c2.873-1.552,3.638-3.622,2.272-6.144
		C85.352,100.088,83.184,99.576,80.314,101.139z M83.816,106.947l-0.52,0.281l-2.34-4.309l0.524-0.283
		c0.346-0.19,0.737-0.297,1.132-0.297c0.871,0,1.636,0.492,2.093,1.329C85.467,105.083,84.835,106.391,83.816,106.947z"/>
	<polygon fill="#B31B1B" points="88.35,103.863 89.62,105.68 91.435,104.42 90.172,102.598 	"/>
	<polygon fill="#B31B1B" points="91.802,92.799 91.418,96.19 93.317,96.449 93.473,95.036 97.597,99.221 99.171,97.666 
		93.102,91.512 	"/>
	<path fill="#B31B1B" d="M103.514,88.273c-0.722-0.53-1.529-0.617-2.427-0.271c0.014-0.849-0.427-1.578-0.954-1.971
		c-1.076-0.79-2.514-0.346-3.567,1.079c-1.044,1.409-0.949,2.839,0.251,3.731c0.597,0.442,1.377,0.543,2.125,0.275
		c-0.054,0.941,0.25,1.648,0.918,2.139c0.485,0.359,0.989,0.541,1.508,0.541c0.867,0,1.733-0.533,2.454-1.494
		c0.603-0.823,0.868-1.649,0.756-2.393C104.48,89.273,104.124,88.729,103.514,88.273z M99.405,88.904
		c-0.309,0.193-0.63,0.359-0.914,0.359c-0.137,0-0.255-0.035-0.362-0.112c-0.425-0.318-0.214-0.843-0.022-1.097
		c0.144-0.201,0.324-0.299,0.525-0.299c0.144,0,0.305,0.058,0.458,0.168C99.349,88.123,99.463,88.572,99.405,88.904z
		 M102.372,91.234c-0.293,0.396-0.844,0.512-1.219,0.234c-0.343-0.256-0.454-0.604-0.362-1.195c0.621-0.405,1.074-0.473,1.463-0.182
		c0.182,0.133,0.282,0.301,0.314,0.491C102.598,90.79,102.528,91.022,102.372,91.234z"/>
	<path fill="#B31B1B" d="M107.432,79.822c-1.498-0.748-2.921-0.303-3.641,1.136c-0.203,0.407-0.286,0.8-0.247,1.188
		c-0.536-0.441-1.022-1.127-0.602-1.975c0.214-0.431,0.496-0.716,0.841-1.017l0.291-0.25l-1.589-1.142l-0.18,0.177
		c-0.441,0.43-0.79,0.911-1.063,1.459c-0.426,0.86-0.509,1.692-0.238,2.495c0.464,1.397,1.889,2.353,2.994,2.9
		c0.964,0.486,1.787,0.723,2.508,0.723c1.097,0,1.921-0.545,2.461-1.619C109.802,82.223,109.242,80.737,107.432,79.822z
		 M107.353,83.094c-0.136,0.285-0.354,0.422-0.662,0.422c-0.21,0-0.453-0.063-0.705-0.194c-0.426-0.21-0.714-0.476-0.799-0.743
		c-0.053-0.16-0.036-0.316,0.049-0.495c0.13-0.258,0.34-0.384,0.65-0.384c0.234,0,0.506,0.072,0.787,0.213
		c0.369,0.188,0.636,0.444,0.723,0.709C107.451,82.779,107.432,82.936,107.353,83.094z"/>
	<path fill="#B31B1B" d="M110.492,71.098c-1.727-0.519-3.119,0.262-3.608,1.927c-0.049,0.153-0.084,0.296-0.102,0.42l-1.013-0.322
		l0.881-2.973l-1.725-0.509l-1.48,4.988l4.79,1.524l-0.002-0.419c-0.004-0.465,0.058-0.903,0.189-1.352
		c0.123-0.412,0.565-1.433,1.491-1.158c0.981,0.298,0.755,1.354,0.666,1.673c-0.175,0.585-0.519,1.005-0.804,1.353l-0.275,0.338
		l2.016,0.664l0.123-0.218c0.331-0.583,0.624-1.258,0.779-1.793c0.304-1.011,0.263-1.94-0.113-2.688
		C111.95,71.854,111.309,71.342,110.492,71.098z"/>
	<path fill="#B31B1B" d="M16.015,59.559c0,24.02,19.532,43.557,43.547,43.557c24.016,0,43.55-19.537,43.55-43.557
		c0-24.013-19.534-43.548-43.55-43.548C35.547,16.011,16.015,35.547,16.015,59.559z M59.562,17.519
		c23.183,0,42.045,18.863,42.045,42.04c0,23.184-18.862,42.044-42.045,42.044c-23.185,0-42.043-18.86-42.043-42.044
		C17.519,36.383,36.377,17.519,59.562,17.519z"/>
	<path fill="#B31B1B" d="M59.562,0C26.718,0,0,26.719,0,59.565c0,32.836,26.718,59.56,59.562,59.56
		c32.846,0,59.562-26.724,59.562-59.56C119.124,26.719,92.408,0,59.562,0z M59.562,117.571c-31.985,0-58.005-26.021-58.005-58.006
		c0-31.983,26.02-58.009,58.005-58.009c31.986,0,58.007,26.025,58.007,58.009C117.569,91.553,91.548,117.571,59.562,117.571z"/>
</g>
</svg>
